<?xml version="1.0" encoding="UTF-8" standalone="no"?>
<!DOCTYPE svg PUBLIC "-//W3C//DTD SVG 1.1//EN"
 "http://www.w3.org/Graphics/SVG/1.1/DTD/svg11.dtd">
<!-- Generated by graphviz version 2.40.1 (20161225.0304)
 -->
<!-- Title: dependencies Pages: 1 -->
<svg width="1488pt" height="284pt"
 viewBox="0.00 0.00 1488.00 284.00" xmlns="http://www.w3.org/2000/svg" xmlns:xlink="http://www.w3.org/1999/xlink">
<g id="graph0" class="graph" transform="scale(1 1) rotate(0) translate(4 280)">
<title>dependencies</title>
<polygon fill="#ffffff" stroke="transparent" points="-4,4 -4,-280 1484,-280 1484,4 -4,4"/>
<text text-anchor="start" x="719.0091" y="-42.4" font-family="sans-serif" font-weight="bold" font-size="14.00" fill="#000000">Legend</text>
<polygon fill="#ffffb3" stroke="transparent" points="506,-10 506,-30 526,-30 526,-10 506,-10"/>
<text text-anchor="start" x="529.629" y="-15.4" font-family="sans-serif" font-size="14.00" fill="#000000"> &#160;Declarations</text>
<polygon fill="#8dd3c7" stroke="transparent" points="619,-10 619,-30 639,-30 639,-10 619,-10"/>
<text text-anchor="start" x="642.7251" y="-15.4" font-family="sans-serif" font-size="14.00" fill="#000000"> &#160;Module</text>
<polygon fill="#80b1d3" stroke="transparent" points="705,-10 705,-30 725,-30 725,-10 705,-10"/>
<text text-anchor="start" x="728.7812" y="-15.4" font-family="sans-serif" font-size="14.00" fill="#000000"> &#160;Bootstrap</text>
<polygon fill="#fdb462" stroke="transparent" points="802,-10 802,-30 822,-30 822,-10 802,-10"/>
<text text-anchor="start" x="825.6732" y="-15.4" font-family="sans-serif" font-size="14.00" fill="#000000"> &#160;Providers</text>
<polygon fill="#fb8072" stroke="transparent" points="898,-10 898,-30 918,-30 918,-10 898,-10"/>
<text text-anchor="start" x="921.7258" y="-15.4" font-family="sans-serif" font-size="14.00" fill="#000000"> &#160;Exports</text>
<g id="clust1" class="cluster">
<title>cluster_AppModule</title>
<polygon fill="none" stroke="#000000" stroke-dasharray="1,5" points="8,-70 8,-268 1472,-268 1472,-70 8,-70"/>
</g>
<g id="clust2" class="cluster">
<title>cluster_AppModule_declarations</title>
<polygon fill="none" stroke="#000000" points="869,-78 869,-130 1464,-130 1464,-78 869,-78"/>
</g>
<g id="clust7" class="cluster">
<title>cluster_AppModule_imports</title>
<polygon fill="none" stroke="#000000" points="466,-78 466,-130 861,-130 861,-78 466,-78"/>
</g>
<g id="clust9" class="cluster">
<title>cluster_AppModule_bootstrap</title>
<polygon fill="none" stroke="#000000" points="748,-208 748,-260 872,-260 872,-208 748,-208"/>
</g>
<g id="clust10" class="cluster">
<title>cluster_AppModule_providers</title>
<polygon fill="none" stroke="#000000" points="16,-78 16,-130 458,-130 458,-78 16,-78"/>
</g>
<!-- AppComponent -->
<g id="node1" class="node">
<title>AppComponent</title>
<polygon fill="#ffffb3" stroke="#000000" points="1455.9399,-122 1350.0601,-122 1350.0601,-86 1455.9399,-86 1455.9399,-122"/>
<text text-anchor="middle" x="1403" y="-99.8" font-family="Times,serif" font-size="14.00" fill="#000000">AppComponent</text>
</g>
<!-- AppModule -->
<g id="node5" class="node">
<title>AppModule</title>
<polygon fill="#8dd3c7" stroke="#000000" points="851.6571,-187 848.6571,-191 827.6571,-191 824.6571,-187 768.3429,-187 768.3429,-151 851.6571,-151 851.6571,-187"/>
<text text-anchor="middle" x="810" y="-164.8" font-family="Times,serif" font-size="14.00" fill="#000000">AppModule</text>
</g>
<!-- AppComponent&#45;&gt;AppModule -->
<g id="edge1" class="edge">
<title>AppComponent&#45;&gt;AppModule</title>
<path fill="none" stroke="#000000" d="M1403,-122.0109C1403,-144.4852 1403,-180 1403,-180 1403,-180 861.6986,-180 861.6986,-180"/>
<polygon fill="#000000" stroke="#000000" points="861.6986,-176.5001 851.6986,-180 861.6986,-183.5001 861.6986,-176.5001"/>
</g>
<!-- YoutubePlayerComponent -->
<g id="node2" class="node">
<title>YoutubePlayerComponent</title>
<polygon fill="#ffffb3" stroke="#000000" points="1332.8075,-122 1167.1925,-122 1167.1925,-86 1332.8075,-86 1332.8075,-122"/>
<text text-anchor="middle" x="1250" y="-99.8" font-family="Times,serif" font-size="14.00" fill="#000000">YoutubePlayerComponent</text>
</g>
<!-- YoutubePlayerComponent&#45;&gt;AppModule -->
<g id="edge2" class="edge">
<title>YoutubePlayerComponent&#45;&gt;AppModule</title>
<path fill="none" stroke="#000000" d="M1250,-122.1289C1250,-142.5724 1250,-173 1250,-173 1250,-173 861.7908,-173 861.7908,-173"/>
<polygon fill="#000000" stroke="#000000" points="861.7908,-169.5001 851.7908,-173 861.7908,-176.5001 861.7908,-169.5001"/>
</g>
<!-- YoutubeSafeUrlPipe -->
<g id="node3" class="node">
<title>YoutubeSafeUrlPipe</title>
<polygon fill="#ffffb3" stroke="#000000" points="1149.1303,-122 1016.8697,-122 1016.8697,-86 1149.1303,-86 1149.1303,-122"/>
<text text-anchor="middle" x="1083" y="-99.8" font-family="Times,serif" font-size="14.00" fill="#000000">YoutubeSafeUrlPipe</text>
</g>
<!-- YoutubeSafeUrlPipe&#45;&gt;AppModule -->
<g id="edge3" class="edge">
<title>YoutubeSafeUrlPipe&#45;&gt;AppModule</title>
<path fill="none" stroke="#000000" d="M1083,-122.2667C1083,-140.5552 1083,-166 1083,-166 1083,-166 861.76,-166 861.76,-166"/>
<polygon fill="#000000" stroke="#000000" points="861.76,-162.5001 851.76,-166 861.76,-169.5001 861.76,-162.5001"/>
</g>
<!-- CreditsComponent -->
<g id="node4" class="node">
<title>CreditsComponent</title>
<polygon fill="#ffffb3" stroke="#000000" points="998.7702,-122 877.2298,-122 877.2298,-86 998.7702,-86 998.7702,-122"/>
<text text-anchor="middle" x="938" y="-99.8" font-family="Times,serif" font-size="14.00" fill="#000000">CreditsComponent</text>
</g>
<!-- CreditsComponent&#45;&gt;AppModule -->
<g id="edge4" class="edge">
<title>CreditsComponent&#45;&gt;AppModule</title>
<path fill="none" stroke="#000000" d="M938,-122.0091C938,-138.0494 938,-159 938,-159 938,-159 861.912,-159 861.912,-159"/>
<polygon fill="#000000" stroke="#000000" points="861.912,-155.5001 851.912,-159 861.912,-162.5001 861.912,-155.5001"/>
</g>
<!-- AppComponent  -->
<g id="node9" class="node">
<title>AppComponent </title>
<polygon fill="#80b1d3" stroke="#000000" points="864.439,-252 755.561,-252 755.561,-216 864.439,-216 864.439,-252"/>
<text text-anchor="middle" x="810" y="-229.8" font-family="Times,serif" font-size="14.00" fill="#000000">AppComponent </text>
</g>
<!-- AppModule&#45;&gt;AppComponent  -->
<g id="edge8" class="edge">
<title>AppModule&#45;&gt;AppComponent </title>
<path fill="none" stroke="#000000" stroke-dasharray="1,5" d="M810,-187.1061C810,-187.1061 810,-205.991 810,-205.991"/>
<polygon fill="#000000" stroke="#000000" points="806.5001,-205.9909 810,-215.991 813.5001,-205.991 806.5001,-205.9909"/>
</g>
<!-- CoreModule -->
<g id="node6" class="node">
<title>CoreModule</title>
<polygon fill="#8dd3c7" stroke="#000000" points="853.2619,-122 850.2619,-126 829.2619,-126 826.2619,-122 766.7381,-122 766.7381,-86 853.2619,-86 853.2619,-122"/>
<text text-anchor="middle" x="810" y="-99.8" font-family="Times,serif" font-size="14.00" fill="#000000">CoreModule</text>
</g>
<!-- CoreModule&#45;&gt;AppModule -->
<g id="edge5" class="edge">
<title>CoreModule&#45;&gt;AppModule</title>
<path fill="none" stroke="#000000" d="M810,-122.1061C810,-122.1061 810,-140.991 810,-140.991"/>
<polygon fill="#000000" stroke="#000000" points="806.5001,-140.9909 810,-150.991 813.5001,-140.991 806.5001,-140.9909"/>
</g>
<!-- Ng2Webstorage -->
<g id="node7" class="node">
<title>Ng2Webstorage</title>
<polygon fill="#8dd3c7" stroke="#000000" points="748.4608,-122 745.4608,-126 724.4608,-126 721.4608,-122 641.5392,-122 641.5392,-86 748.4608,-86 748.4608,-122"/>
<text text-anchor="middle" x="695" y="-99.8" font-family="Times,serif" font-size="14.00" fill="#000000">Ng2Webstorage</text>
</g>
<!-- Ng2Webstorage&#45;&gt;AppModule -->
<g id="edge6" class="edge">
<title>Ng2Webstorage&#45;&gt;AppModule</title>
<path fill="none" stroke="#000000" d="M695,-122.0091C695,-138.0494 695,-159 695,-159 695,-159 758.157,-159 758.157,-159"/>
<polygon fill="#000000" stroke="#000000" points="758.1571,-162.5001 768.157,-159 758.157,-155.5001 758.1571,-162.5001"/>
</g>
<!-- SettingsSidenavModule -->
<g id="node8" class="node">
<title>SettingsSidenavModule</title>
<polygon fill="#8dd3c7" stroke="#000000" points="623.766,-122 620.766,-126 599.766,-126 596.766,-122 474.234,-122 474.234,-86 623.766,-86 623.766,-122"/>
<text text-anchor="middle" x="549" y="-99.8" font-family="Times,serif" font-size="14.00" fill="#000000">SettingsSidenavModule</text>
</g>
<!-- SettingsSidenavModule&#45;&gt;AppModule -->
<g id="edge7" class="edge">
<title>SettingsSidenavModule&#45;&gt;AppModule</title>
<path fill="none" stroke="#000000" d="M549,-122.2667C549,-140.5552 549,-166 549,-166 549,-166 758.0658,-166 758.0658,-166"/>
<polygon fill="#000000" stroke="#000000" points="758.0659,-169.5001 768.0658,-166 758.0658,-162.5001 758.0659,-169.5001"/>
</g>
<!-- YoutubeAPIService -->
<g id="node10" class="node">
<title>YoutubeAPIService</title>
<ellipse fill="#fdb462" stroke="#000000" cx="361" cy="-104" rx="88.6043" ry="18"/>
<text text-anchor="middle" x="361" y="-99.8" font-family="Times,serif" font-size="14.00" fill="#000000">YoutubeAPIService</text>
</g>
<!-- YoutubeAPIService&#45;&gt;AppModule -->
<g id="edge9" class="edge">
<title>YoutubeAPIService&#45;&gt;AppModule</title>
<path fill="none" stroke="#000000" d="M361,-122.1289C361,-142.5724 361,-173 361,-173 361,-173 758.1624,-173 758.1624,-173"/>
<polygon fill="#000000" stroke="#000000" points="758.1624,-176.5001 768.1624,-173 758.1623,-169.5001 758.1624,-176.5001"/>
</g>
<!-- YoutubeInteractionService -->
<g id="node11" class="node">
<title>YoutubeInteractionService</title>
<ellipse fill="#fdb462" stroke="#000000" cx="139" cy="-104" rx="115.1474" ry="18"/>
<text text-anchor="middle" x="139" y="-99.8" font-family="Times,serif" font-size="14.00" fill="#000000">YoutubeInteractionService</text>
</g>
<!-- YoutubeInteractionService&#45;&gt;AppModule -->
<g id="edge10" class="edge">
<title>YoutubeInteractionService&#45;&gt;AppModule</title>
<path fill="none" stroke="#000000" d="M139,-122.0109C139,-144.4852 139,-180 139,-180 139,-180 758.2795,-180 758.2795,-180"/>
<polygon fill="#000000" stroke="#000000" points="758.2795,-183.5001 768.2795,-180 758.2794,-176.5001 758.2795,-183.5001"/>
</g>
</g>
</svg>
