<?xml version="1.0" encoding="UTF-8" standalone="no"?>
<!DOCTYPE svg PUBLIC "-//W3C//DTD SVG 1.1//EN"
 "http://www.w3.org/Graphics/SVG/1.1/DTD/svg11.dtd">
<!-- Generated by graphviz version 2.40.1 (20161225.0304)
 -->
<!-- Title: dependencies Pages: 1 -->
<svg width="3467pt" height="298pt"
 viewBox="0.00 0.00 3467.00 298.00" xmlns="http://www.w3.org/2000/svg" xmlns:xlink="http://www.w3.org/1999/xlink">
<g id="graph0" class="graph" transform="scale(1 1) rotate(0) translate(4 294)">
<title>dependencies</title>
<polygon fill="#ffffff" stroke="transparent" points="-4,4 -4,-294 3463,-294 3463,4 -4,4"/>
<text text-anchor="start" x="1708.5091" y="-42.4" font-family="sans-serif" font-weight="bold" font-size="14.00" fill="#000000">Legend</text>
<polygon fill="#ffffb3" stroke="transparent" points="1495.5,-10 1495.5,-30 1515.5,-30 1515.5,-10 1495.5,-10"/>
<text text-anchor="start" x="1519.129" y="-15.4" font-family="sans-serif" font-size="14.00" fill="#000000"> &#160;Declarations</text>
<polygon fill="#8dd3c7" stroke="transparent" points="1608.5,-10 1608.5,-30 1628.5,-30 1628.5,-10 1608.5,-10"/>
<text text-anchor="start" x="1632.2251" y="-15.4" font-family="sans-serif" font-size="14.00" fill="#000000"> &#160;Module</text>
<polygon fill="#80b1d3" stroke="transparent" points="1694.5,-10 1694.5,-30 1714.5,-30 1714.5,-10 1694.5,-10"/>
<text text-anchor="start" x="1718.2812" y="-15.4" font-family="sans-serif" font-size="14.00" fill="#000000"> &#160;Bootstrap</text>
<polygon fill="#fdb462" stroke="transparent" points="1791.5,-10 1791.5,-30 1811.5,-30 1811.5,-10 1791.5,-10"/>
<text text-anchor="start" x="1815.1732" y="-15.4" font-family="sans-serif" font-size="14.00" fill="#000000"> &#160;Providers</text>
<polygon fill="#fb8072" stroke="transparent" points="1887.5,-10 1887.5,-30 1907.5,-30 1907.5,-10 1887.5,-10"/>
<text text-anchor="start" x="1911.2258" y="-15.4" font-family="sans-serif" font-size="14.00" fill="#000000"> &#160;Exports</text>
<g id="clust1" class="cluster">
<title>cluster_AppModule</title>
<polygon fill="none" stroke="#000000" stroke-dasharray="1,5" points="420,-70 420,-282 1884,-282 1884,-70 420,-70"/>
</g>
<g id="clust2" class="cluster">
<title>cluster_AppModule_declarations</title>
<polygon fill="none" stroke="#000000" points="878,-78 878,-130 1473,-130 1473,-78 878,-78"/>
</g>
<g id="clust7" class="cluster">
<title>cluster_AppModule_imports</title>
<polygon fill="none" stroke="#000000" points="1481,-78 1481,-130 1876,-130 1876,-78 1481,-78"/>
</g>
<g id="clust9" class="cluster">
<title>cluster_AppModule_bootstrap</title>
<polygon fill="none" stroke="#000000" points="1192,-222 1192,-274 1316,-274 1316,-222 1192,-222"/>
</g>
<g id="clust10" class="cluster">
<title>cluster_AppModule_providers</title>
<polygon fill="none" stroke="#000000" points="428,-78 428,-130 870,-130 870,-78 428,-78"/>
</g>
<g id="clust11" class="cluster">
<title>cluster_CoreModule</title>
<polygon fill="none" stroke="#000000" stroke-dasharray="1,5" points="1991,-146 1991,-214 2249,-214 2249,-146 1991,-146"/>
</g>
<g id="clust13" class="cluster">
<title>cluster_CoreModule_imports</title>
<polygon fill="none" stroke="#000000" points="2125,-154 2125,-206 2241,-206 2241,-154 2125,-154"/>
</g>
<g id="clust14" class="cluster">
<title>cluster_CoreModule_exports</title>
<polygon fill="none" stroke="#000000" points="1999,-154 1999,-206 2117,-206 2117,-154 1999,-154"/>
</g>
<g id="clust17" class="cluster">
<title>cluster_HomeModule</title>
<polygon fill="none" stroke="#000000" stroke-dasharray="1,5" points="2815,-70 2815,-206 3125,-206 3125,-70 2815,-70"/>
</g>
<g id="clust18" class="cluster">
<title>cluster_HomeModule_declarations</title>
<polygon fill="none" stroke="#000000" points="2985,-78 2985,-130 3117,-130 3117,-78 2985,-78"/>
</g>
<g id="clust20" class="cluster">
<title>cluster_HomeModule_imports</title>
<polygon fill="none" stroke="#000000" points="2823,-78 2823,-130 2977,-130 2977,-78 2823,-78"/>
</g>
<g id="clust30" class="cluster">
<title>cluster_LayoutModule</title>
<polygon fill="none" stroke="#000000" stroke-dasharray="1,5" points="1892,-70 1892,-138 2807,-138 2807,-70 1892,-70"/>
</g>
<g id="clust31" class="cluster">
<title>cluster_LayoutModule_declarations</title>
<polygon fill="none" stroke="#000000" points="2189,-78 2189,-130 2799,-130 2799,-78 2189,-78"/>
</g>
<g id="clust37" class="cluster">
<title>cluster_LayoutModule_exports</title>
<polygon fill="none" stroke="#000000" points="1900,-78 1900,-130 2181,-130 2181,-78 1900,-78"/>
</g>
<g id="clust40" class="cluster">
<title>cluster_SearchModule</title>
<polygon fill="none" stroke="#000000" stroke-dasharray="1,5" points="3133,-70 3133,-206 3451,-206 3451,-70 3133,-70"/>
</g>
<g id="clust41" class="cluster">
<title>cluster_SearchModule_declarations</title>
<polygon fill="none" stroke="#000000" points="3307,-78 3307,-130 3443,-130 3443,-78 3307,-78"/>
</g>
<g id="clust43" class="cluster">
<title>cluster_SearchModule_imports</title>
<polygon fill="none" stroke="#000000" points="3141,-78 3141,-130 3299,-130 3299,-78 3141,-78"/>
</g>
<g id="clust53" class="cluster">
<title>cluster_SettingsSidenavModule</title>
<polygon fill="none" stroke="#000000" stroke-dasharray="1,5" points="8,-146 8,-214 412,-214 412,-146 8,-146"/>
</g>
<g id="clust54" class="cluster">
<title>cluster_SettingsSidenavModule_declarations</title>
<polygon fill="none" stroke="#000000" points="216,-154 216,-206 404,-206 404,-154 216,-154"/>
</g>
<g id="clust57" class="cluster">
<title>cluster_SettingsSidenavModule_exports</title>
<polygon fill="none" stroke="#000000" points="16,-154 16,-206 208,-206 208,-154 16,-154"/>
</g>
<!-- AppComponent -->
<g id="node1" class="node">
<title>AppComponent</title>
<polygon fill="#ffffb3" stroke="#000000" points="1174.9399,-122 1069.0601,-122 1069.0601,-86 1174.9399,-86 1174.9399,-122"/>
<text text-anchor="middle" x="1122" y="-99.8" font-family="Times,serif" font-size="14.00" fill="#000000">AppComponent</text>
</g>
<!-- AppModule -->
<g id="node5" class="node">
<title>AppModule</title>
<polygon fill="#8dd3c7" stroke="#000000" points="1295.6571,-198 1292.6571,-202 1271.6571,-202 1268.6571,-198 1212.3429,-198 1212.3429,-162 1295.6571,-162 1295.6571,-198"/>
<text text-anchor="middle" x="1254" y="-175.8" font-family="Times,serif" font-size="14.00" fill="#000000">AppModule</text>
</g>
<!-- AppComponent&#45;&gt;AppModule -->
<g id="edge1" class="edge">
<title>AppComponent&#45;&gt;AppModule</title>
<path fill="none" stroke="#000000" d="M1122,-122.0348C1122,-141.5762 1122,-170 1122,-170 1122,-170 1202.2344,-170 1202.2344,-170"/>
<polygon fill="#000000" stroke="#000000" points="1202.2344,-173.5001 1212.2344,-170 1202.2343,-166.5001 1202.2344,-173.5001"/>
</g>
<!-- YoutubePlayerComponent -->
<g id="node2" class="node">
<title>YoutubePlayerComponent</title>
<polygon fill="#ffffb3" stroke="#000000" points="1051.8075,-122 886.1925,-122 886.1925,-86 1051.8075,-86 1051.8075,-122"/>
<text text-anchor="middle" x="969" y="-99.8" font-family="Times,serif" font-size="14.00" fill="#000000">YoutubePlayerComponent</text>
</g>
<!-- YoutubePlayerComponent&#45;&gt;AppModule -->
<g id="edge2" class="edge">
<title>YoutubePlayerComponent&#45;&gt;AppModule</title>
<path fill="none" stroke="#000000" d="M969,-122.0449C969,-143.6623 969,-177 969,-177 969,-177 1202.2533,-177 1202.2533,-177"/>
<polygon fill="#000000" stroke="#000000" points="1202.2534,-180.5001 1212.2533,-177 1202.2533,-173.5001 1202.2534,-180.5001"/>
</g>
<!-- YoutubeSafeUrlPipe -->
<g id="node3" class="node">
<title>YoutubeSafeUrlPipe</title>
<polygon fill="#ffffb3" stroke="#000000" points="1465.1303,-122 1332.8697,-122 1332.8697,-86 1465.1303,-86 1465.1303,-122"/>
<text text-anchor="middle" x="1399" y="-99.8" font-family="Times,serif" font-size="14.00" fill="#000000">YoutubeSafeUrlPipe</text>
</g>
<!-- YoutubeSafeUrlPipe&#45;&gt;AppModule -->
<g id="edge3" class="edge">
<title>YoutubeSafeUrlPipe&#45;&gt;AppModule</title>
<path fill="none" stroke="#000000" d="M1399,-122.0267C1399,-142.7672 1399,-174 1399,-174 1399,-174 1305.94,-174 1305.94,-174"/>
<polygon fill="#000000" stroke="#000000" points="1305.94,-170.5001 1295.94,-174 1305.94,-177.5001 1305.94,-170.5001"/>
</g>
<!-- CreditsComponent -->
<g id="node4" class="node">
<title>CreditsComponent</title>
<polygon fill="#ffffb3" stroke="#000000" points="1314.7702,-122 1193.2298,-122 1193.2298,-86 1314.7702,-86 1314.7702,-122"/>
<text text-anchor="middle" x="1254" y="-99.8" font-family="Times,serif" font-size="14.00" fill="#000000">CreditsComponent</text>
</g>
<!-- CreditsComponent&#45;&gt;AppModule -->
<g id="edge4" class="edge">
<title>CreditsComponent&#45;&gt;AppModule</title>
<path fill="none" stroke="#000000" d="M1254,-122.0109C1254,-122.0109 1254,-151.855 1254,-151.855"/>
<polygon fill="#000000" stroke="#000000" points="1250.5001,-151.8549 1254,-161.855 1257.5001,-151.855 1250.5001,-151.8549"/>
</g>
<!-- AppComponent  -->
<g id="node9" class="node">
<title>AppComponent </title>
<polygon fill="#80b1d3" stroke="#000000" points="1308.439,-266 1199.561,-266 1199.561,-230 1308.439,-230 1308.439,-266"/>
<text text-anchor="middle" x="1254" y="-243.8" font-family="Times,serif" font-size="14.00" fill="#000000">AppComponent </text>
</g>
<!-- AppModule&#45;&gt;AppComponent  -->
<g id="edge8" class="edge">
<title>AppModule&#45;&gt;AppComponent </title>
<path fill="none" stroke="#000000" stroke-dasharray="1,5" d="M1254,-198.2228C1254,-198.2228 1254,-219.7269 1254,-219.7269"/>
<polygon fill="#000000" stroke="#000000" points="1250.5001,-219.7269 1254,-229.7269 1257.5001,-219.727 1250.5001,-219.7269"/>
</g>
<!-- CoreModule -->
<g id="node6" class="node">
<title>CoreModule</title>
<polygon fill="#8dd3c7" stroke="#000000" points="1868.2619,-122 1865.2619,-126 1844.2619,-126 1841.2619,-122 1781.7381,-122 1781.7381,-86 1868.2619,-86 1868.2619,-122"/>
<text text-anchor="middle" x="1825" y="-99.8" font-family="Times,serif" font-size="14.00" fill="#000000">CoreModule</text>
</g>
<!-- CoreModule&#45;&gt;AppModule -->
<g id="edge5" class="edge">
<title>CoreModule&#45;&gt;AppModule</title>
<path fill="none" stroke="#000000" d="M1825,-122.2337C1825,-148.0094 1825,-192 1825,-192 1825,-192 1305.987,-192 1305.987,-192"/>
<polygon fill="#000000" stroke="#000000" points="1305.987,-188.5001 1295.987,-192 1305.987,-195.5001 1305.987,-188.5001"/>
</g>
<!-- LayoutModule  -->
<g id="node13" class="node">
<title>LayoutModule </title>
<polygon fill="#fb8072" stroke="#000000" points="2109.208,-198 2006.792,-198 2006.792,-162 2109.208,-162 2109.208,-198"/>
<text text-anchor="middle" x="2058" y="-175.8" font-family="Times,serif" font-size="14.00" fill="#000000">LayoutModule </text>
</g>
<!-- CoreModule&#45;&gt;LayoutModule  -->
<g id="edge12" class="edge">
<title>CoreModule&#45;&gt;LayoutModule </title>
<path fill="none" stroke="#000000" stroke-dasharray="5,2" d="M1853.9205,-122.1686C1853.9205,-141.0898 1853.9205,-168 1853.9205,-168 1853.9205,-168 1996.7656,-168 1996.7656,-168"/>
<polygon fill="#000000" stroke="#000000" points="1996.7656,-171.5001 2006.7656,-168 1996.7655,-164.5001 1996.7656,-171.5001"/>
</g>
<!-- HomeModule -->
<g id="node15" class="node">
<title>HomeModule</title>
<polygon fill="#8dd3c7" stroke="#000000" points="2946.7619,-198 2943.7619,-202 2922.7619,-202 2919.7619,-198 2853.2381,-198 2853.2381,-162 2946.7619,-162 2946.7619,-198"/>
<text text-anchor="middle" x="2900" y="-175.8" font-family="Times,serif" font-size="14.00" fill="#000000">HomeModule</text>
</g>
<!-- CoreModule&#45;&gt;HomeModule -->
<g id="edge14" class="edge">
<title>CoreModule&#45;&gt;HomeModule</title>
<path fill="none" stroke="#000000" d="M1796.0795,-122.1025C1796.0795,-133.0859 1796.0795,-145 1796.0795,-145 1796.0795,-145 2884.3731,-145 2884.3731,-145 2884.3731,-145 2884.3731,-151.68 2884.3731,-151.68"/>
<polygon fill="#000000" stroke="#000000" points="2880.8732,-151.6799 2884.3731,-161.68 2887.8732,-151.68 2880.8732,-151.6799"/>
</g>
<!-- SearchModule -->
<g id="node24" class="node">
<title>SearchModule</title>
<polygon fill="#8dd3c7" stroke="#000000" points="3268.6375,-198 3265.6375,-202 3244.6375,-202 3241.6375,-198 3171.3625,-198 3171.3625,-162 3268.6375,-162 3268.6375,-198"/>
<text text-anchor="middle" x="3220" y="-175.8" font-family="Times,serif" font-size="14.00" fill="#000000">SearchModule</text>
</g>
<!-- CoreModule&#45;&gt;SearchModule -->
<g id="edge23" class="edge">
<title>CoreModule&#45;&gt;SearchModule</title>
<path fill="none" stroke="#000000" d="M1810.5397,-122.1432C1810.5397,-128.4611 1810.5397,-134 1810.5397,-134 1810.5397,-134 3203.7272,-134 3203.7272,-134 3203.7272,-134 3203.7272,-151.8196 3203.7272,-151.8196"/>
<polygon fill="#000000" stroke="#000000" points="3200.2273,-151.8195 3203.7272,-161.8196 3207.2273,-151.8196 3200.2273,-151.8195"/>
</g>
<!-- Ng2Webstorage -->
<g id="node7" class="node">
<title>Ng2Webstorage</title>
<polygon fill="#8dd3c7" stroke="#000000" points="1763.4608,-122 1760.4608,-126 1739.4608,-126 1736.4608,-122 1656.5392,-122 1656.5392,-86 1763.4608,-86 1763.4608,-122"/>
<text text-anchor="middle" x="1710" y="-99.8" font-family="Times,serif" font-size="14.00" fill="#000000">Ng2Webstorage</text>
</g>
<!-- Ng2Webstorage&#45;&gt;AppModule -->
<g id="edge6" class="edge">
<title>Ng2Webstorage&#45;&gt;AppModule</title>
<path fill="none" stroke="#000000" d="M1710,-122.1985C1710,-146.3563 1710,-186 1710,-186 1710,-186 1305.6758,-186 1305.6758,-186"/>
<polygon fill="#000000" stroke="#000000" points="1305.6758,-182.5001 1295.6758,-186 1305.6758,-189.5001 1305.6758,-182.5001"/>
</g>
<!-- SettingsSidenavModule -->
<g id="node8" class="node">
<title>SettingsSidenavModule</title>
<polygon fill="#8dd3c7" stroke="#000000" points="1638.766,-122 1635.766,-126 1614.766,-126 1611.766,-122 1489.234,-122 1489.234,-86 1638.766,-86 1638.766,-122"/>
<text text-anchor="middle" x="1564" y="-99.8" font-family="Times,serif" font-size="14.00" fill="#000000">SettingsSidenavModule</text>
</g>
<!-- SettingsSidenavModule&#45;&gt;AppModule -->
<g id="edge7" class="edge">
<title>SettingsSidenavModule&#45;&gt;AppModule</title>
<path fill="none" stroke="#000000" d="M1601.4415,-122.0109C1601.4415,-144.4852 1601.4415,-180 1601.4415,-180 1601.4415,-180 1305.9096,-180 1305.9096,-180"/>
<polygon fill="#000000" stroke="#000000" points="1305.9096,-176.5001 1295.9096,-180 1305.9095,-183.5001 1305.9096,-176.5001"/>
</g>
<!-- SettingsSidenavComponent  -->
<g id="node27" class="node">
<title>SettingsSidenavComponent </title>
<polygon fill="#fb8072" stroke="#000000" points="199.5484,-198 24.4516,-198 24.4516,-162 199.5484,-162 199.5484,-198"/>
<text text-anchor="middle" x="112" y="-175.8" font-family="Times,serif" font-size="14.00" fill="#000000">SettingsSidenavComponent </text>
</g>
<!-- SettingsSidenavModule&#45;&gt;SettingsSidenavComponent  -->
<g id="edge26" class="edge">
<title>SettingsSidenavModule&#45;&gt;SettingsSidenavComponent </title>
<path fill="none" stroke="#000000" stroke-dasharray="5,2" d="M1526.5586,-122.1903C1526.5586,-125.5376 1526.5586,-128 1526.5586,-128 1526.5586,-128 112,-128 112,-128 112,-128 112,-151.8129 112,-151.8129"/>
<polygon fill="#000000" stroke="#000000" points="108.5001,-151.8129 112,-161.8129 115.5001,-151.813 108.5001,-151.8129"/>
</g>
<!-- YoutubeAPIService -->
<g id="node10" class="node">
<title>YoutubeAPIService</title>
<ellipse fill="#fdb462" stroke="#000000" cx="773" cy="-104" rx="88.6043" ry="18"/>
<text text-anchor="middle" x="773" y="-99.8" font-family="Times,serif" font-size="14.00" fill="#000000">YoutubeAPIService</text>
</g>
<!-- YoutubeAPIService&#45;&gt;AppModule -->
<g id="edge9" class="edge">
<title>YoutubeAPIService&#45;&gt;AppModule</title>
<path fill="none" stroke="#000000" d="M773,-122.1532C773,-145.7566 773,-184 773,-184 773,-184 1202.1558,-184 1202.1558,-184"/>
<polygon fill="#000000" stroke="#000000" points="1202.1559,-187.5001 1212.1558,-184 1202.1558,-180.5001 1202.1559,-187.5001"/>
</g>
<!-- YoutubeInteractionService -->
<g id="node11" class="node">
<title>YoutubeInteractionService</title>
<ellipse fill="#fdb462" stroke="#000000" cx="551" cy="-104" rx="115.1474" ry="18"/>
<text text-anchor="middle" x="551" y="-99.8" font-family="Times,serif" font-size="14.00" fill="#000000">YoutubeInteractionService</text>
</g>
<!-- YoutubeInteractionService&#45;&gt;AppModule -->
<g id="edge10" class="edge">
<title>YoutubeInteractionService&#45;&gt;AppModule</title>
<path fill="none" stroke="#000000" d="M551,-122.0265C551,-147.5093 551,-191 551,-191 551,-191 1202.1294,-191 1202.1294,-191"/>
<polygon fill="#000000" stroke="#000000" points="1202.1295,-194.5001 1212.1294,-191 1202.1294,-187.5001 1202.1295,-194.5001"/>
</g>
<!-- LayoutModule -->
<g id="node12" class="node">
<title>LayoutModule</title>
<polygon fill="#8dd3c7" stroke="#000000" points="2232.7078,-198 2229.7078,-202 2208.7078,-202 2205.7078,-198 2133.2922,-198 2133.2922,-162 2232.7078,-162 2232.7078,-198"/>
<text text-anchor="middle" x="2183" y="-175.8" font-family="Times,serif" font-size="14.00" fill="#000000">LayoutModule</text>
</g>
<!-- LayoutModule&#45;&gt;CoreModule -->
<g id="edge11" class="edge">
<title>LayoutModule&#45;&gt;CoreModule</title>
<path fill="none" stroke="#000000" d="M2143.2026,-161.8777C2143.2026,-159.0271 2143.2026,-157 2143.2026,-157 2143.2026,-157 1839.4603,-157 1839.4603,-157 1839.4603,-157 1839.4603,-132.2396 1839.4603,-132.2396"/>
<polygon fill="#000000" stroke="#000000" points="1842.9604,-132.2396 1839.4603,-122.2396 1835.9604,-132.2396 1842.9604,-132.2396"/>
</g>
<!-- HeaderComponent  -->
<g id="node21" class="node">
<title>HeaderComponent </title>
<polygon fill="#fb8072" stroke="#000000" points="2172.7436,-122 2047.2564,-122 2047.2564,-86 2172.7436,-86 2172.7436,-122"/>
<text text-anchor="middle" x="2110" y="-99.8" font-family="Times,serif" font-size="14.00" fill="#000000">HeaderComponent </text>
</g>
<!-- LayoutModule&#45;&gt;HeaderComponent  -->
<g id="edge20" class="edge">
<title>LayoutModule&#45;&gt;HeaderComponent </title>
<path fill="none" stroke="#000000" stroke-dasharray="5,2" d="M2162.8153,-161.9891C2162.8153,-161.9891 2162.8153,-132.145 2162.8153,-132.145"/>
<polygon fill="#000000" stroke="#000000" points="2166.3154,-132.145 2162.8153,-122.145 2159.3154,-132.1451 2166.3154,-132.145"/>
</g>
<!-- FooterComponent  -->
<g id="node22" class="node">
<title>FooterComponent </title>
<polygon fill="#fb8072" stroke="#000000" points="2029.8814,-122 1908.1186,-122 1908.1186,-86 2029.8814,-86 2029.8814,-122"/>
<text text-anchor="middle" x="1969" y="-99.8" font-family="Times,serif" font-size="14.00" fill="#000000">FooterComponent </text>
</g>
<!-- LayoutModule&#45;&gt;FooterComponent  -->
<g id="edge21" class="edge">
<title>LayoutModule&#45;&gt;FooterComponent </title>
<path fill="none" stroke="#000000" stroke-dasharray="5,2" d="M2153.009,-161.7985C2153.009,-155.972 2153.009,-151 2153.009,-151 2153.009,-151 2018.1683,-151 2018.1683,-151 2018.1683,-151 2018.1683,-132.037 2018.1683,-132.037"/>
<polygon fill="#000000" stroke="#000000" points="2021.6684,-132.037 2018.1683,-122.037 2014.6684,-132.037 2021.6684,-132.037"/>
</g>
<!-- HomeComponent -->
<g id="node14" class="node">
<title>HomeComponent</title>
<polygon fill="#ffffb3" stroke="#000000" points="3108.5451,-122 2993.4549,-122 2993.4549,-86 3108.5451,-86 3108.5451,-122"/>
<text text-anchor="middle" x="3051" y="-99.8" font-family="Times,serif" font-size="14.00" fill="#000000">HomeComponent</text>
</g>
<!-- HomeComponent&#45;&gt;HomeModule -->
<g id="edge13" class="edge">
<title>HomeComponent&#45;&gt;HomeModule</title>
<path fill="none" stroke="#000000" d="M3051,-122.0109C3051,-144.4852 3051,-180 3051,-180 3051,-180 2956.9496,-180 2956.9496,-180"/>
<polygon fill="#000000" stroke="#000000" points="2956.9497,-176.5001 2946.9496,-180 2956.9496,-183.5001 2956.9497,-176.5001"/>
</g>
<!-- HomeRoutingModule -->
<g id="node16" class="node">
<title>HomeRoutingModule</title>
<polygon fill="#8dd3c7" stroke="#000000" points="2969.3795,-122 2966.3795,-126 2945.3795,-126 2942.3795,-122 2830.6205,-122 2830.6205,-86 2969.3795,-86 2969.3795,-122"/>
<text text-anchor="middle" x="2900" y="-99.8" font-family="Times,serif" font-size="14.00" fill="#000000">HomeRoutingModule</text>
</g>
<!-- HomeRoutingModule&#45;&gt;HomeModule -->
<g id="edge15" class="edge">
<title>HomeRoutingModule&#45;&gt;HomeModule</title>
<path fill="none" stroke="#000000" d="M2915.6269,-122.0109C2915.6269,-122.0109 2915.6269,-151.855 2915.6269,-151.855"/>
<polygon fill="#000000" stroke="#000000" points="2912.127,-151.8549 2915.6269,-161.855 2919.127,-151.855 2912.127,-151.8549"/>
</g>
<!-- HeaderComponent -->
<g id="node17" class="node">
<title>HeaderComponent</title>
<polygon fill="#ffffb3" stroke="#000000" points="2454.7437,-122 2333.2563,-122 2333.2563,-86 2454.7437,-86 2454.7437,-122"/>
<text text-anchor="middle" x="2394" y="-99.8" font-family="Times,serif" font-size="14.00" fill="#000000">HeaderComponent</text>
</g>
<!-- HeaderComponent&#45;&gt;LayoutModule -->
<g id="edge16" class="edge">
<title>HeaderComponent&#45;&gt;LayoutModule</title>
<path fill="none" stroke="#000000" d="M2394,-122.308C2394,-142.1455 2394,-171 2394,-171 2394,-171 2242.7369,-171 2242.7369,-171"/>
<polygon fill="#000000" stroke="#000000" points="2242.7369,-167.5001 2232.7369,-171 2242.7368,-174.5001 2242.7369,-167.5001"/>
</g>
<!-- FooterComponent -->
<g id="node18" class="node">
<title>FooterComponent</title>
<polygon fill="#ffffb3" stroke="#000000" points="2314.8809,-122 2197.1191,-122 2197.1191,-86 2314.8809,-86 2314.8809,-122"/>
<text text-anchor="middle" x="2256" y="-99.8" font-family="Times,serif" font-size="14.00" fill="#000000">FooterComponent</text>
</g>
<!-- FooterComponent&#45;&gt;LayoutModule -->
<g id="edge17" class="edge">
<title>FooterComponent&#45;&gt;LayoutModule</title>
<path fill="none" stroke="#000000" d="M2214.8317,-122.0109C2214.8317,-122.0109 2214.8317,-151.855 2214.8317,-151.855"/>
<polygon fill="#000000" stroke="#000000" points="2211.3318,-151.8549 2214.8317,-161.855 2218.3318,-151.855 2211.3318,-151.8549"/>
</g>
<!-- BigInputComponent -->
<g id="node19" class="node">
<title>BigInputComponent</title>
<polygon fill="#ffffb3" stroke="#000000" points="2790.6108,-122 2659.3892,-122 2659.3892,-86 2790.6108,-86 2790.6108,-122"/>
<text text-anchor="middle" x="2725" y="-99.8" font-family="Times,serif" font-size="14.00" fill="#000000">BigInputComponent</text>
</g>
<!-- BigInputComponent&#45;&gt;LayoutModule -->
<g id="edge18" class="edge">
<title>BigInputComponent&#45;&gt;LayoutModule</title>
<path fill="none" stroke="#000000" d="M2725,-122.0263C2725,-146.9773 2725,-189 2725,-189 2725,-189 2243.0186,-189 2243.0186,-189"/>
<polygon fill="#000000" stroke="#000000" points="2243.0186,-185.5001 2233.0186,-189 2243.0185,-192.5001 2243.0186,-185.5001"/>
</g>
<!-- BigInputActionComponent -->
<g id="node20" class="node">
<title>BigInputActionComponent</title>
<polygon fill="#ffffb3" stroke="#000000" points="2641.7133,-122 2472.2867,-122 2472.2867,-86 2641.7133,-86 2641.7133,-122"/>
<text text-anchor="middle" x="2557" y="-99.8" font-family="Times,serif" font-size="14.00" fill="#000000">BigInputActionComponent</text>
</g>
<!-- BigInputActionComponent&#45;&gt;LayoutModule -->
<g id="edge19" class="edge">
<title>BigInputActionComponent&#45;&gt;LayoutModule</title>
<path fill="none" stroke="#000000" d="M2557,-122.0109C2557,-144.4852 2557,-180 2557,-180 2557,-180 2242.6643,-180 2242.6643,-180"/>
<polygon fill="#000000" stroke="#000000" points="2242.6643,-176.5001 2232.6643,-180 2242.6643,-183.5001 2242.6643,-176.5001"/>
</g>
<!-- SearchComponent -->
<g id="node23" class="node">
<title>SearchComponent</title>
<polygon fill="#ffffb3" stroke="#000000" points="3434.9201,-122 3315.0799,-122 3315.0799,-86 3434.9201,-86 3434.9201,-122"/>
<text text-anchor="middle" x="3375" y="-99.8" font-family="Times,serif" font-size="14.00" fill="#000000">SearchComponent</text>
</g>
<!-- SearchComponent&#45;&gt;SearchModule -->
<g id="edge22" class="edge">
<title>SearchComponent&#45;&gt;SearchModule</title>
<path fill="none" stroke="#000000" d="M3375,-122.0109C3375,-144.4852 3375,-180 3375,-180 3375,-180 3279.043,-180 3279.043,-180"/>
<polygon fill="#000000" stroke="#000000" points="3279.043,-176.5001 3269.043,-180 3279.0429,-183.5001 3279.043,-176.5001"/>
</g>
<!-- SearchRoutingModule -->
<g id="node25" class="node">
<title>SearchRoutingModule</title>
<polygon fill="#8dd3c7" stroke="#000000" points="3291.2548,-122 3288.2548,-126 3267.2548,-126 3264.2548,-122 3148.7452,-122 3148.7452,-86 3291.2548,-86 3291.2548,-122"/>
<text text-anchor="middle" x="3220" y="-99.8" font-family="Times,serif" font-size="14.00" fill="#000000">SearchRoutingModule</text>
</g>
<!-- SearchRoutingModule&#45;&gt;SearchModule -->
<g id="edge24" class="edge">
<title>SearchRoutingModule&#45;&gt;SearchModule</title>
<path fill="none" stroke="#000000" d="M3236.2728,-122.0109C3236.2728,-122.0109 3236.2728,-151.855 3236.2728,-151.855"/>
<polygon fill="#000000" stroke="#000000" points="3232.7729,-151.8549 3236.2728,-161.855 3239.7729,-151.855 3232.7729,-151.8549"/>
</g>
<!-- SettingsSidenavComponent -->
<g id="node26" class="node">
<title>SettingsSidenavComponent</title>
<polygon fill="#ffffb3" stroke="#000000" points="395.549,-198 224.451,-198 224.451,-162 395.549,-162 395.549,-198"/>
<text text-anchor="middle" x="310" y="-175.8" font-family="Times,serif" font-size="14.00" fill="#000000">SettingsSidenavComponent</text>
</g>
<!-- SettingsSidenavComponent&#45;&gt;SettingsSidenavModule -->
<g id="edge25" class="edge">
<title>SettingsSidenavComponent&#45;&gt;SettingsSidenavModule</title>
<path fill="none" stroke="#000000" d="M310,-161.8726C310,-151.2891 310,-140 310,-140 310,-140 1564,-140 1564,-140 1564,-140 1564,-132.4218 1564,-132.4218"/>
<polygon fill="#000000" stroke="#000000" points="1567.5001,-132.4218 1564,-122.4218 1560.5001,-132.4219 1567.5001,-132.4218"/>
</g>
</g>
</svg>
